#!OML:ASF H:\MichaelJackson\Top Level 1\Subject 1\Session 1\male.ASF
:FULLY-SPECIFIED
:DEGREES
967
root 26.8717 16.5962 11.2858 -169.972 -1.34725 -182.445
lowerback 3.40422 -1.54111 -2.42406
upperback 1.63691 -2.1834 0.227501
thorax -0.12918 -1.12996 1.66447
lowerneck -10.0622 -0.604622 3.17722
upperneck 11.9489 -0.858344 -2.47995
head 5.22147 -0.398077 -1.35166
rclavicle 1.01132e-014 5.36719e-015
rhumerus -174.22 146.238 -246.367
rradius 73.4345
rwrist 31.5309
rhand -36.5764 -28.4033
rfingers 7.12502
rthumb -9.66597 -418.162
lclavicle 1.01132e-014 5.36719e-015
lhumerus -51.5906 -24.727 97.9725
lradius 63.3554
lwrist -1.51247
lhand -9.47751 25.0466
lfingers 7.12502
lthumb 16.4867 54.3661
rfemur -48.1569 -4.92342 19.1634
rtibia 51.754
rfoot -0.0973571 8.36834
rtoes -2.13739
lfemur -21.9864 10.1671 -26.0067
ltibia 39.7434
lfoot -25.7591 -7.51066
ltoes 28.9284
968
root 26.877 16.6023 11.3779 -170.038 -1.35404 -182.46
lowerback 3.47597 -1.50842 -2.51176
upperback 1.61901 -2.14511 0.185628
thorax -0.187754 -1.11028 1.6721
lowerneck -10.0728 -0.644937 3.11563
upperneck 11.9605 -0.919555 -2.36159
head 5.2261 -0.422601 -1.30921
rclavicle 2.75814e-015 -1.59028e-015
rhumerus -176.223 147.206 -248.623
rradius 73.6294
rwrist 32.4069
rhand -38.5999 -29.1847
rfingers 7.12502
rthumb -11.6178 -418.843
lclavicle 2.75814e-015 -1.59028e-015
lhumerus -50.5314 -24.9648 97.2209
lradius 65.4569
lwrist -1.46853
lhand -10.4207 24.9639
lfingers 7.12502
lthumb 15.5785 54.3565
rfemur -48.4774 -5.00929 19.2045
rtibia 53.2156
rfoot 0.378794 8.53999
rtoes -2.11043
lfemur -22.3346 10.2416 -26.057
ltibia 39.8023
lfoot -25.4373 -7.6768
ltoes 29.1017
969
root 26.8815 16.6103 11.4685 -170.1 -1.35808 -182.415
lowerback 3.53161 -1.47803 -2.51801
upperback 1.60127 -2.10651 0.163251
thorax -0.239486 -1.09 1.65355
lowerneck -10.0905 -0.671102 3.05401
upperneck 11.9773 -0.956724 -2.2792
head 5.23406 -0.437793 -1.27634
rclavicle -2.87244e-014 2.78299e-015
rhumerus -178.214 148.167 -250.766
rradius 73.8555
rwrist 33.0856
rhand -40.3225 -29.9533
rfingers 7.12502
rthumb -13.2787 -419.51
lclavicle -2.87244e-014 2.78299e-015
lhumerus -49.4712 -25.1767 96.4498
lradius 67.6649
lwrist -1.35292
lhand -11.2335 24.9124
lfingers 7.12502
lthumb 14.7956 54.3643
rfemur -48.7709 -5.07819 19.3025
rtibia 54.6518
rfoot 0.918794 8.77765
rtoes -2.04901
lfemur -22.6707 10.278 -26.0442
ltibia 39.8422
lfoot -25.1127 -7.78174
ltoes 29.2691
970
root 26.885 16.6199 11.5576 -170.168 -1.37951 -182.331
lowerback 3.58686 -1.46128 -2.46496
upperback 1.5795 -2.08367 0.159357
thorax -0.295829 -1.07711 1.62129
lowerneck -10.0995 -0.683518 2.99534
upperneck 11.9949 -0.969027 -2.2415
head 5.24124 -0.443589 -1.25603
rclavicle -7.25564e-015 -1.3418e-014
rhumerus -180.172 149.073 -252.781
rradius 74.0936
rwrist 33.5679
rhand -41.7799 -30.7472
rfingers 7.12502
rthumb -14.6831 -420.207
lclavicle -7.25564e-015 -1.3418e-014
lhumerus -48.4291 -25.343 95.6692
lradius 69.9688
lwrist -1.22334
lhand -11.8574 24.9369
lfingers 7.12502
lthumb 14.1944 54.4319
rfemur -49.0233 -5.15326 19.433
rtibia 56.0519
rfoot 1.50694 9.05974
rtoes -1.85294
lfemur -22.9766 10.2374 -25.985
ltibia 39.853
lfoot -24.782 -7.81174
ltoes 29.4253
971
root 26.8877 16.6311 11.6451 -170.252 -1.4201 -182.215
lowerback 3.63999 -1.46171 -2.37378
upperback 1.56701 -2.08225 0.177871
thorax -0.341001 -1.07519 1.59113
lowerneck -10.1041 -0.676502 2.93407
upperneck 12.0027 -0.950068 -2.23844
head 5.24528 -0.436754 -1.24375
rclavicle -1.36167e-014 6.06293e-015
rhumerus -182.053 149.903 -254.654
rradius 74.3159
rwrist 33.8715
rhand -43.0036 -31.5423
rfingers 7.12502
rthumb -15.8618 -420.913
lclavicle -1.36167e-014 6.06293e-015
lhumerus -47.3876 -25.4598 94.8781
lradius 72.351
lwrist -1.10338
lhand -12.4726 24.9741
lfingers 7.12502
lthumb 13.6016 54.5098
rfemur -49.2153 -5.23002 19.5842
rtibia 57.409
rfoot 2.13304 9.35936
rtoes -1.64172
lfemur -23.2358 10.1089 -25.8811
ltibia 39.8291
lfoot -24.4457 -7.76069
ltoes 29.5627
972
root 26.8899 16.6436 11.7311 -170.353 -1.47848 -182.098
lowerback 3.69815 -1.47647 -2.27565
upperback 1.56111 -2.09986 0.205942
thorax -0.381273 -1.08308 1.56758
lowerneck -10.1161 -0.658461 2.87996
upperneck 12.0115 -0.912943 -2.2692
head 5.2511 -0.423122 -1.24194
rclavicle -4.14963e-015 -7.45443e-015
rhumerus -183.85 150.649 -256.391
rradius 74.4941
rwrist 34.0576
rhand -44.0066 -32.3158
rfingers 7.12502
rthumb -16.8275 -421.607
lclavicle -4.14963e-015 -7.45443e-015
lhumerus -46.3473 -25.5489 94.0816
lradius 74.7827
lwrist -1.04693
lhand -13.0636 25.0188
lfingers 7.12502
lthumb 13.0318 54.5917
rfemur -49.3483 -5.31752 19.7206
rtibia 58.7262
rfoot 2.78023 9.64741
rtoes -1.34508
lfemur -23.4442 9.89843 -25.7657
ltibia 39.764
lfoot -24.1 -7.64578
ltoes 29.7027
973
root 26.8927 16.6567 11.8157 -170.461 -1.53342 -181.988
lowerback 3.75478 -1.49727 -2.1983
upperback 1.55771 -2.12613 0.240059
thorax -0.416787 -1.09559 1.56211
lowerneck -10.1319 -0.633619 2.83065
upperneck 12.0228 -0.86532 -2.31489
head 5.25853 -0.405172 -1.24484
rclavicle -2.85753e-015 1.68967e-015
rhumerus -185.582 151.335 -258.025
rradius 74.6197
rwrist 34.1915
rhand -44.8131 -33.0205
rfingers 7.12502
rthumb -17.6038 -422.244
lclavicle -2.85753e-015 1.68967e-015
lhumerus -45.3035 -25.6234 93.2763
lradius 77.2409
lwrist -1.08263
lhand -13.7462 25.0178
lfingers 7.12502
lthumb 12.3738 54.6316
rfemur -49.4346 -5.38557 19.8336
rtibia 60.0062
rfoot 3.44256 9.89436
rtoes -1.09584
lfemur -23.6142 9.6193 -25.6467
ltibia 39.6585
lfoot -23.7464 -7.45469
ltoes 29.8006
974
root 26.896 16.6703 11.8987 -170.574 -1.58518 -181.904
lowerback 3.80089 -1.52315 -2.15795
upperback 1.55823 -2.16031 0.270401
thorax -0.440854 -1.11244 1.57338
lowerneck -10.1603 -0.606307 2.78495
upperneck 12.0452 -0.815076 -2.35956
head 5.27159 -0.385678 -1.24794
rclavicle -1.09332e-015 -1.2921e-015
rhumerus -187.254 151.98 -259.574
rradius 74.682
rwrist 34.3222
rhand -45.457 -33.6096
rfingers 7.12502
rthumb -18.2233 -422.776
lclavicle -1.09332e-015 -1.2921e-015
lhumerus -44.2376 -25.693 92.4535
lradius 79.7008
lwrist -1.20667
lhand -14.4714 24.9832
lfingers 7.12502
lthumb 11.6746 54.638
rfemur -49.4729 -5.44824 19.9028
rtibia 61.255
rfoot 4.124 10.0921
rtoes -0.839113
lfemur -23.748 9.30031 -25.5484
ltibia 39.5159
lfoot -23.3862 -7.22429
ltoes 29.8772
975
root 26.9005 16.6842 11.9803 -170.68 -1.61489 -181.837
lowerback 3.83341 -1.54503 -2.15041
upperback 1.55463 -2.18984 0.294125
thorax -0.460783 -1.12699 1.59573
lowerneck -10.1923 -0.580427 2.74345
upperneck 12.0794 -0.769485 -2.38619
head 5.2889 -0.366876 -1.24651
rclavicle 2.31336e-014 -8.94531e-016
rhumerus -188.892 152.612 -261.064
rradius 74.6787
rwrist 34.489
rhand -45.9764 -34.0459
rfingers 7.12502
rthumb -18.723 -423.165
lclavicle 2.31336e-014 -8.94531e-016
lhumerus -43.147 -25.7714 91.6082
lradius 82.1383
lwrist -1.4276
lhand -15.3035 24.8465
lfingers 7.12502
lthumb 10.872 54.5451
rfemur -49.4763 -5.48148 19.941
rtibia 62.474
rfoot 4.84425 10.2158
rtoes -0.492132
lfemur -23.8678 8.96647 -25.4616
ltibia 39.3476
lfoot -23.0197 -6.96074
ltoes 29.927
976
root 26.906 16.6979 12.0608 -170.771 -1.62003 -181.787
lowerback 3.8417 -1.56201 -2.17307
upperback 1.54532 -2.21306 0.30754
thorax -0.472533 -1.13833 1.6235
lowerneck -10.2297 -0.556339 2.7101
upperneck 12.1255 -0.730207 -2.39173
head 5.31073 -0.349225 -1.24036
rclavicle 5.8393e-015 -2.98177e-016
rhumerus -190.507 153.243 -262.503
rradius 74.6092
rwrist 34.706
rhand -46.4135 -34.3422
rfingers 7.12502
rthumb -19.1434 -423.42
lclavicle 5.8393e-015 -2.98177e-016
lhumerus -42.0181 -25.8605 90.7319
lradius 84.5345
lwrist -1.73296
lhand -16.1307 24.6567
lfingers 7.12502
lthumb 10.0741 54.3956
rfemur -49.4539 -5.48531 19.9472
rtibia 63.6666
rfoot 5.60471 10.2737
rtoes -0.0263939
lfemur -23.99 8.63506 -25.3918
ltibia 39.1637
lfoot -22.6452 -6.6777
ltoes 29.9592
977
root 26.9129 16.7111 12.1404 -170.833 -1.5938 -181.746
lowerback 3.81735 -1.57033 -2.21754
upperback 1.52687 -2.22427 0.3115
thorax -0.475482 -1.14345 1.65242
lowerneck -10.2749 -0.535682 2.68069
upperneck 12.1886 -0.699651 -2.36945
head 5.33906 -0.333557 -1.22692
rclavicle -5.51627e-015 2.23633e-015
rhumerus -192.109 153.885 -263.895
rradius 74.4742
rwrist 34.973
rhand -46.8194 -34.5589
rfingers 7.12502
rthumb -19.5336 -423.598
lclavicle -5.51627e-015 2.23633e-015
lhumerus -40.8485 -25.9628 89.8194
lradius 86.8816
lwrist -2.10812
lhand -16.9179 24.4345
lfingers 7.12502
lthumb 9.31453 54.2087
rfemur -49.4171 -5.44292 19.9314
rtibia 64.8303
rfoot 6.40305 10.2742
rtoes 0.427129
lfemur -24.1391 8.33336 -25.3321
ltibia 38.9797
lfoot -22.2654 -6.39769
ltoes 29.9899
978
root 26.9207 16.7237 12.2191 -170.874 -1.55509 -181.719
lowerback 3.76676 -1.57594 -2.27915
upperback 1.50061 -2.23145 0.30457
thorax -0.471722 -1.14636 1.67888
lowerneck -10.3286 -0.5182 2.65683
upperneck 12.2661 -0.67693 -2.32647
head 5.37321 -0.319879 -1.20859
rclavicle -2.60781e-014 9.14409e-015
rhumerus -193.702 154.532 -265.239
rradius 74.2683
rwrist 35.2482
rhand -47.2554 -34.7037
rfingers 7.12502
rthumb -19.9528 -423.699
lclavicle -2.60781e-014 9.14409e-015
lhumerus -39.6358 -26.0721 88.8702
lradius 89.1736
lwrist -2.54021
lhand -17.6182 24.2125
lfingers 7.12502
lthumb 8.63877 54.0158
rfemur -49.3542 -5.38013 19.8887
rtibia 65.9644
rfoot 7.23102 10.251
rtoes 0.956974
lfemur -24.3145 8.06366 -25.2886
ltibia 38.8063
lfoot -21.882 -6.1445
ltoes 30.0344
979
root 26.9298 16.7355 12.2973 -170.891 -1.49783 -181.688
lowerback 3.69504 -1.57541 -2.34586
upperback 1.46551 -2.22962 0.295005
thorax -0.465534 -1.14449 1.70462
lowerneck -10.3846 -0.500808 2.63667
upperneck 12.3481 -0.657035 -2.26816
head 5.4091 -0.306268 -1.18627
rclavicle 1.15171e-014 6.95746e-016
rhumerus -195.283 155.175 -266.521
rradius 73.9874
rwrist 35.5033
rhand -47.7455 -34.8382
rfingers 7.12502
rthumb -20.4239 -423.784
lclavicle 1.15171e-014 6.95746e-016
lhumerus -38.3799 -26.1816 87.8861
lradius 91.4074
lwrist -3.00971
lhand -18.2365 23.9987
lfingers 7.12502
lthumb 8.04204 53.8257
rfemur -49.2651 -5.27712 19.8389
rtibia 67.0615
rfoot 8.09204 10.2151
rtoes 1.53539
lfemur -24.527 7.83658 -25.2396
ltibia 38.6535
lfoot -21.495 -5.92508
ltoes 30.1107
